<?xml version="1.0" encoding="UTF-8"?><!DOCTYPE svg PUBLIC "-//W3C//DTD SVG 1.1//EN" "http://www.w3.org/Graphics/SVG/1.1/DTD/svg11.dtd"><svg xmlns="http://www.w3.org/2000/svg" xmlns:xlink="http://www.w3.org/1999/xlink"><defs>
        <linearGradient id="paint0_linear-l-compact" x1="-.265" y1="23.559" x2="21.324" y2="21.387" gradientUnits="userSpaceOnUse">
            <stop offset="0" stop-color="#52CEFF"/>
            <stop offset="1" stop-color="#1C7B9C"/>
        </linearGradient>
        <linearGradient id="paint1_linear-l-compact" x1="-.264" y1="8.136" x2="21.325" y2="5.963" gradientUnits="userSpaceOnUse">
            <stop offset="0" stop-color="#52CEFF"/>
            <stop offset="1" stop-color="#1C7B9C"/>
        </linearGradient>
        <linearGradient id="paint2_linear-l-compact" x1="23" y1="7.459" x2="5.516" y2="27.87" gradientUnits="userSpaceOnUse">
            <stop offset="0" stop-color="#EB4F45"/>
            <stop offset="1" stop-color="#AB1C13"/>
        </linearGradient>
        <linearGradient id="paint3_linear-l-compact" x1="23" y1="22.84" x2="5.516" y2="43.251" gradientUnits="userSpaceOnUse">
            <stop offset="0" stop-color="#EB4F45"/>
            <stop offset="1" stop-color="#AB1C13"/>
        </linearGradient>
    
        <linearGradient id="paint0_linear-l-letters" x1="-.219" y1="19.462" x2="17.616" y2="17.667" gradientUnits="userSpaceOnUse">
            <stop offset="0" stop-color="#52CEFF"/>
            <stop offset="1" stop-color="#1C7B9C"/>
        </linearGradient>
        <linearGradient id="paint1_linear-l-letters" x1="-.218" y1="6.721" x2="17.616" y2="4.926" gradientUnits="userSpaceOnUse">
            <stop offset="0" stop-color="#52CEFF"/>
            <stop offset="1" stop-color="#1C7B9C"/>
        </linearGradient>
        <linearGradient id="paint2_linear-l-letters" x1="19" y1="6.162" x2="4.557" y2="23.023" gradientUnits="userSpaceOnUse">
            <stop offset="0" stop-color="#EB4F45"/>
            <stop offset="1" stop-color="#AB1C13"/>
        </linearGradient>
        <linearGradient id="paint3_linear-l-letters" x1="19" y1="18.868" x2="4.557" y2="35.729" gradientUnits="userSpaceOnUse">
            <stop offset="0" stop-color="#EB4F45"/>
            <stop offset="1" stop-color="#AB1C13"/>
        </linearGradient>
    
        <linearGradient id="paint0_linear_l-small" x1="34.272" y1="14.029" x2="15.014" y2="23.835" gradientUnits="userSpaceOnUse">
            <stop offset="0" stop-color="#2183A6"/>
            <stop offset="1" stop-color="#4EC8F8"/>
        </linearGradient>
        <linearGradient id="paint1_linear_l-small" x1="-8.355" y1="24.446" x2="26.318" y2="3.642" gradientUnits="userSpaceOnUse">
            <stop offset="0" stop-color="#AE1F15"/>
            <stop offset="1" stop-color="#E84D44"/>
        </linearGradient>
    
        <linearGradient id="paint0_linear_logo-w" x1="-.597" y1="53.244" x2="48.194" y2="48.335" gradientUnits="userSpaceOnUse">
            <stop offset="0" stop-color="#52CEFF"/>
            <stop offset="1" stop-color="#1C7B9C"/>
        </linearGradient>
        <linearGradient id="paint1_linear_logo-w" x1="-.597" y1="18.386" x2="48.194" y2="13.477" gradientUnits="userSpaceOnUse">
            <stop offset="0" stop-color="#52CEFF"/>
            <stop offset="1" stop-color="#1C7B9C"/>
        </linearGradient>
        <linearGradient id="paint2_linear_logo-w" x1="51.98" y1="16.858" x2="12.466" y2="62.987" gradientUnits="userSpaceOnUse">
            <stop offset="0" stop-color="#EB4F45"/>
            <stop offset="1" stop-color="#AB1C13"/>
        </linearGradient>
        <linearGradient id="paint3_linear_logo-w" x1="51.98" y1="51.619" x2="12.466" y2="97.749" gradientUnits="userSpaceOnUse">
            <stop offset="0" stop-color="#EB4F45"/>
            <stop offset="1" stop-color="#AB1C13"/>
        </linearGradient>
    
        <linearGradient id="paint0_linear_logo" x1="-.597" y1="53.244" x2="48.194" y2="48.335" gradientUnits="userSpaceOnUse">
            <stop offset="0" stop-color="#52CEFF"/>
            <stop offset="1" stop-color="#1C7B9C"/>
        </linearGradient>
        <linearGradient id="paint1_linear_logo" x1="-.597" y1="18.386" x2="48.194" y2="13.477" gradientUnits="userSpaceOnUse">
            <stop offset="0" stop-color="#52CEFF"/>
            <stop offset="1" stop-color="#1C7B9C"/>
        </linearGradient>
        <linearGradient id="paint2_linear_logo" x1="51.98" y1="16.858" x2="12.466" y2="62.987" gradientUnits="userSpaceOnUse">
            <stop offset="0" stop-color="#EB4F45"/>
            <stop offset="1" stop-color="#AB1C13"/>
        </linearGradient>
        <linearGradient id="paint3_linear_logo" x1="51.98" y1="51.619" x2="12.466" y2="97.749" gradientUnits="userSpaceOnUse">
            <stop offset="0" stop-color="#EB4F45"/>
            <stop offset="1" stop-color="#AB1C13"/>
        </linearGradient>
    </defs><symbol id="ico-color-logo-compact" viewBox="0 0 299 39">
    <path d="M.745 23.794L22.3 30.99v-8.388L.854 15.405l-.109 8.389z" fill="url(#paint0_linear-l-compact)"/>
    <path d="M0 7.357c0 .465.297.878.738 1.027l21.67 7.286V7.255L.857.035A.65.65 0 000 .65v6.707z" fill="url(#paint1_linear-l-compact)"/>
    <path d="M0 16.732c0-.933.596-1.76 1.48-2.055l20.31-6.78a.474.474 0 00.186-.784l.42.133c.36.114.604.448.604.826v6.218c0 .93-.594 1.757-1.477 2.053L1.14 23.191a.392.392 0 00-.07.711l-.365-.117A1.014 1.014 0 010 22.819v-6.087z" fill="url(#paint2_linear-l-compact)"/>
    <path d="M0 32.113c0-.933.596-1.76 1.48-2.055l20.31-6.78a.474.474 0 00.186-.784l.42.133c.36.114.604.448.604.826v6.218c0 .93-.594 1.757-1.476 2.053L.962 38.634l-.325.108a.491.491 0 01-.637-.47v-6.159z" fill="url(#paint3_linear-l-compact)"/>
    <path d="M35.076 25.343c-1.76 0-3.215-.581-4.366-1.743-1.14-1.162-1.71-2.59-1.71-4.283 0-1.693.57-3.121 1.71-4.283 1.15-1.162 2.606-1.743 4.366-1.743 1.062 0 2.036.254 2.922.764a5.497 5.497 0 012.091 2.058l-1.344.78a3.675 3.675 0 00-1.494-1.527 4.182 4.182 0 00-2.175-.581c-1.34 0-2.435.432-3.287 1.295-.841.863-1.262 1.942-1.262 3.237 0 1.284.42 2.357 1.262 3.22.852.864 1.948 1.295 3.287 1.295.797 0 1.521-.188 2.175-.564.663-.387 1.162-.897 1.494-1.527l1.344.763a5.493 5.493 0 01-2.075 2.075 5.848 5.848 0 01-2.938.764z" fill="#000"/>
    <path d="M43.382 23.666h5.395v1.461h-6.94v-11.62h6.857v1.46h-5.312v3.57h4.897v1.444h-4.897v3.685z" fill="#000"/>
    <path d="M58.078 13.507v1.46H54.64v10.16h-1.527v-10.16h-3.42v-1.46h8.384z" fill="#000"/>
    <path d="M61.15 23.666h5.395v1.461h-6.94v-11.62h6.857v1.46h-5.313v3.57h4.898v1.444h-4.898v3.685z" fill="#000"/>
    <path d="M75.049 19.101c.53.255.951.62 1.261 1.096.321.476.482 1.023.482 1.643 0 .93-.327 1.71-.98 2.34-.653.632-1.45.947-2.39.947h-5.014v-11.62h4.649c.907 0 1.676.304 2.307.913.63.608.946 1.361.946 2.257 0 1.03-.42 1.838-1.261 2.424zm-1.992-4.15h-3.105v3.552h3.105c.487 0 .896-.171 1.228-.514.332-.343.498-.764.498-1.262 0-.487-.171-.902-.515-1.245a1.599 1.599 0 00-1.211-.531zm.365 8.732c.52 0 .957-.183 1.311-.548.354-.365.531-.813.531-1.345 0-.52-.182-.962-.547-1.328a1.735 1.735 0 00-1.295-.547h-3.47v3.768h3.47z" fill="#000"/>
    <path d="M88.283 23.583c-1.162 1.173-2.584 1.76-4.266 1.76s-3.104-.587-4.266-1.76c-1.163-1.173-1.744-2.595-1.744-4.266 0-1.682.581-3.104 1.743-4.267 1.163-1.173 2.585-1.76 4.267-1.76 1.682 0 3.104.587 4.266 1.76 1.173 1.163 1.76 2.585 1.76 4.267 0 1.671-.587 3.093-1.76 4.266zm-7.47-1.046c.863.864 1.931 1.295 3.204 1.295 1.273 0 2.335-.431 3.187-1.295.863-.874 1.295-1.947 1.295-3.22 0-1.284-.432-2.357-1.295-3.22-.852-.875-1.914-1.312-3.187-1.312s-2.34.437-3.204 1.311c-.852.864-1.278 1.937-1.278 3.22 0 1.274.426 2.347 1.278 3.221z" fill="#000"/>
    <path d="M94.04 12.262V11h4.483v1.262H94.04zm5.08 12.865v-8.665l-5.976 8.665h-1.245v-11.62h1.544v8.682l5.976-8.682h1.245v11.62H99.12z" fill="#000"/>
    <path d="M114.206 13.723h1.561l-3.736 8.864c-.42.996-.957 1.721-1.61 2.175-.653.443-1.45.636-2.39.58v-1.427c.642.067 1.162-.027 1.56-.282.399-.255.731-.692.996-1.311l.116-.266-3.934-8.334h1.56l3.088 6.64 2.789-6.64z" fill="#000"/>
    <path d="M124.367 13.723h1.527v11.62h-1.527v-5.23h-5.644v5.23h-1.544v-11.62h1.544v4.93h5.644v-4.93z" fill="#000"/>
    <path d="M135.602 25.343v-8.666l-5.976 8.666h-1.245v-11.62h1.544v8.682l5.976-8.683h1.245v11.62h-1.544z" fill="#000"/>
    <path d="M146.272 19.317c.531.255.952.62 1.262 1.096.321.475.481 1.023.481 1.643 0 .93-.326 1.71-.979 2.34-.653.631-1.45.947-2.391.947h-5.013v-11.62h4.648c.908 0 1.677.304 2.308.912.63.61.946 1.362.946 2.258 0 1.03-.421 1.837-1.262 2.424zm-1.992-4.15h-3.104v3.552h3.104c.487 0 .896-.171 1.229-.514.332-.343.498-.764.498-1.262 0-.487-.172-.902-.515-1.245a1.599 1.599 0 00-1.212-.531zm.365 8.732c.52 0 .958-.183 1.312-.548.354-.365.531-.814.531-1.345 0-.52-.183-.963-.548-1.328a1.735 1.735 0 00-1.295-.548h-3.469V23.9h3.469z" fill="#000"/>
    <path d="M151.389 23.882h5.395v1.46h-6.939v-11.62h6.856v1.461h-5.312v3.57h4.897v1.444h-4.897v3.685z" fill="#000"/>
    <path d="M162.865 13.723c1.073 0 1.964.36 2.672 1.079.72.708 1.079 1.593 1.079 2.656 0 1.051-.359 1.936-1.079 2.656-.708.72-1.599 1.079-2.672 1.079h-2.673v4.15h-1.544v-11.62h4.217zm0 6.025c.641 0 1.173-.215 1.593-.647.421-.443.631-.99.631-1.643 0-.664-.21-1.212-.631-1.644-.42-.431-.952-.647-1.593-.647h-2.673v4.582h2.673z" fill="#000"/>
    <path d="M173.82 25.559c-1.759 0-3.215-.581-4.366-1.743-1.14-1.162-1.709-2.59-1.709-4.283 0-1.694.569-3.121 1.709-4.283 1.151-1.162 2.607-1.743 4.366-1.743 1.063 0 2.037.254 2.922.763a5.501 5.501 0 012.092 2.059l-1.345.78a3.675 3.675 0 00-1.494-1.527A4.183 4.183 0 00173.82 15c-1.339 0-2.434.431-3.287 1.295-.841.863-1.261 1.942-1.261 3.237 0 1.284.42 2.357 1.261 3.22.853.863 1.948 1.295 3.287 1.295.797 0 1.522-.188 2.175-.564.664-.388 1.162-.897 1.494-1.528l1.345.764a5.496 5.496 0 01-2.075 2.075 5.85 5.85 0 01-2.939.764z" fill="#000"/>
    <path d="M187.803 25.343v-8.666l-5.976 8.666h-1.245v-11.62h1.544v8.682l5.976-8.683h1.245v11.62h-1.544z" fill="#000"/>
    <path d="M199.27 13.723v1.46h-3.436v10.16h-1.527v-10.16h-3.42v-1.46h8.383z" fill="#000"/>
    <path d="M202.342 23.882h5.395v1.46h-6.939v-11.62h6.856v1.461h-5.312v3.57h4.897v1.444h-4.897v3.685z" fill="#000"/>
    <path d="M217.038 13.723v1.46h-3.436v10.16h-1.528v-10.16h-3.419v-1.46h8.383z" fill="#000"/>
    <path d="M224.823 16.96l-1.826 3.037 1.826 3.022h-1.56l-1.827-3.021 1.827-3.038h1.56zm2.822 0l-1.826 3.037 1.826 3.022h-1.56l-1.826-3.021 1.826-3.038h1.56z" fill="#000"/>
    <path d="M235.659 19.118c.598.254 1.063.625 1.395 1.112.332.487.498 1.062.498 1.726 0 .996-.376 1.81-1.129 2.44-.742.631-1.727.947-2.955.947-1.118 0-2.02-.25-2.706-.747a3.985 3.985 0 01-1.427-1.926l1.311-.747c.343 1.306 1.284 1.96 2.822 1.96.808 0 1.433-.178 1.876-.532.443-.365.664-.847.664-1.444 0-.598-.21-1.08-.631-1.445-.409-.365-.985-.547-1.726-.547h-1.362v-1.412h.98c.708 0 1.273-.171 1.693-.514.421-.354.631-.814.631-1.378 0-.553-.199-1.002-.598-1.345-.387-.354-.929-.53-1.627-.53-1.283 0-2.141.57-2.573 1.709l-1.294-.747c.697-1.605 1.986-2.407 3.867-2.407 1.118 0 2.02.31 2.706.93.698.62 1.046 1.405 1.046 2.357 0 1.107-.487 1.953-1.461 2.54z" fill="#000"/>
    <path d="M246.573 13.507h1.528v11.62h-1.528v-5.23h-5.644v5.23h-1.544v-11.62h1.544v4.93h5.644v-4.93z" fill="#000"/>
    <path d="M258.24 25.127l-.946-2.606h-5.229l-.946 2.606h-1.644l4.333-11.62h1.743l4.333 11.62h-1.644zm-5.644-4.05h4.167l-2.092-5.728-2.075 5.728z" fill="#000"/>
    <path d="M268.443 13.507h1.527v11.62h-1.527v-5.23h-5.644v5.23h-1.544v-11.62h1.544v4.93h5.644v-4.93z" fill="#000"/>
    <path d="M279.678 25.127v-8.665l-5.976 8.665h-1.245v-11.62h1.544v8.682l5.976-8.682h1.245v11.62h-1.544z" fill="#000"/>
    <path d="M285.252 23.666h5.395v1.461h-6.939v-11.62h6.856v1.46h-5.312v3.57h4.897v1.444h-4.897v3.685z" fill="#000"/>
    <path d="M293.955 16.96l1.826 3.037-1.826 3.022h-1.561l1.826-3.021-1.826-3.038h1.561zm2.822 0l1.826 3.037-1.826 3.022h-1.561l1.827-3.021-1.827-3.038h1.561z" fill="#000"/>
    
</symbol><symbol id="ico-color-logo-letters" viewBox="0 0 19 33">
    <path d="M.615 19.656L18.422 25.6v-6.93L.705 12.726l-.09 6.93z" fill="url(#paint0_linear-l-letters)"/>
    <path d="M0 6.077c0 .385.245.726.61.849l17.902 6.019V5.993L.707.028A.537.537 0 000 .538v5.54z" fill="url(#paint1_linear-l-letters)"/>
    <path d="M0 13.822c0-.77.493-1.454 1.223-1.698L18 6.524a.391.391 0 00.153-.648l.347.11c.297.094.499.37.499.682v5.136a1.79 1.79 0 01-1.22 1.697L.942 19.157a.324.324 0 00-.058.588l-.302-.097A.838.838 0 010 18.85v-5.028z" fill="url(#paint2_linear-l-letters)"/>
    <path d="M0 26.528c0-.77.493-1.454 1.223-1.698L18 19.23a.391.391 0 00.153-.648l.347.11c.297.094.499.37.499.682V24.511a1.79 1.79 0 01-1.22 1.696L.795 31.914l-.269.09A.406.406 0 010 31.617v-5.09z" fill="url(#paint3_linear-l-letters)"/>
    
</symbol><symbol id="ico-color-logo-small" viewBox="0 0 31 30">
    <path d="M29.814 21.041c0 1.796-.968 3.393-2.41 3.976l-14.422 4.925c-.578.234-1.18-.273-1.18-.993v-3.933c0-1.795.968-3.392 2.41-3.975l14.421-4.925c.579-.234 1.181.272 1.181.993v3.932z" fill="url(#paint0_linear_l-small)"/>
    <path d="M.313 14.663a6.935 6.935 0 014.686-6.56L28.355.095a1.734 1.734 0 012.296 1.64v6.489a6.935 6.935 0 01-4.686 6.56L2.61 22.791a1.734 1.734 0 01-2.296-1.64v-6.489z" fill="url(#paint1_linear_l-small)"/>
    
</symbol><symbol id="ico-color-logo-white" viewBox="0 0 236 88">
    <path d="M1.685 53.774L50.4 70.039V51.08L1.93 34.816l-.245 18.958z" fill="url(#paint0_linear_logo-w)"/>
    <path d="M0 16.627c0 1.051.671 1.985 1.668 2.32l48.977 16.467V16.396L1.935.078A1.469 1.469 0 000 1.47v15.157z" fill="url(#paint1_linear_logo-w)"/>
    <path d="M0 37.813a4.896 4.896 0 013.346-4.644l45.902-15.322a1.07 1.07 0 00.417-1.772l.95.301a1.958 1.958 0 011.365 1.867v14.052a4.896 4.896 0 01-3.336 4.641L2.576 52.411a.885.885 0 00-.157 1.608l-.826-.265A2.293 2.293 0 010 51.571V37.813z" fill="url(#paint2_linear_logo-w)"/>
    <path d="M0 72.575a4.896 4.896 0 013.346-4.644l45.902-15.322a1.07 1.07 0 00.417-1.773l.95.302a1.958 1.958 0 011.365 1.866V67.057a4.896 4.896 0 01-3.336 4.64L2.174 87.313l-.734.244A1.11 1.11 0 010 86.497V72.575z" fill="url(#paint3_linear_logo-w)"/>
    <path d="M76.313 29.92c-2.688 0-4.91-.888-6.668-2.662-1.74-1.775-2.61-3.955-2.61-6.54 0-2.586.87-4.766 2.61-6.54 1.758-1.775 3.98-2.663 6.668-2.663 1.622 0 3.11.389 4.461 1.166 1.37.778 2.434 1.826 3.194 3.144l-2.053 1.191c-.507-.98-1.268-1.757-2.282-2.332-.997-.591-2.104-.887-3.32-.887-2.045 0-3.719.659-5.02 1.977-1.284 1.318-1.926 2.966-1.926 4.944 0 1.96.642 3.6 1.926 4.918 1.301 1.318 2.975 1.977 5.02 1.977 1.216 0 2.323-.287 3.32-.862 1.014-.592 1.775-1.369 2.282-2.332l2.053 1.166c-.743 1.318-1.8 2.374-3.168 3.169-1.37.777-2.865 1.166-4.487 1.166z" fill="#fff"/>
    <path d="M88.996 27.36h8.239v2.23H86.638V11.845h10.47v2.23h-8.112v5.451h7.479v2.206h-7.479v5.627z" fill="#fff"/>
    <path d="M111.438 11.845v2.23h-5.247V29.59h-2.333V14.076h-5.222v-2.231h12.802z" fill="#fff"/>
    <path d="M116.129 27.36h8.239v2.23h-10.597V11.845h10.47v2.23h-8.112v5.451h7.478v2.206h-7.478v5.627z" fill="#fff"/>
    <path d="M137.354 20.388a4.642 4.642 0 011.927 1.673c.49.727.735 1.563.735 2.51 0 1.42-.499 2.61-1.496 3.574-.997.963-2.214 1.445-3.65 1.445h-7.656V11.845h7.098c1.386 0 2.561.465 3.524 1.394.963.93 1.445 2.079 1.445 3.448 0 1.572-.642 2.805-1.927 3.701zm-3.042-6.338h-4.74v5.425h4.74c.744 0 1.369-.262 1.876-.786.507-.523.761-1.166.761-1.926a2.59 2.59 0 00-.786-1.901c-.507-.541-1.124-.812-1.851-.812zm.558 13.335c.794 0 1.462-.28 2.003-.837.54-.558.811-1.242.811-2.053 0-.795-.279-1.47-.837-2.028a2.65 2.65 0 00-1.977-.837h-5.298v5.755h5.298z" fill="#fff"/>
    <path d="M157.564 27.233c-1.774 1.791-3.946 2.687-6.515 2.687-2.568 0-4.74-.896-6.515-2.687-1.774-1.792-2.661-3.963-2.661-6.515 0-2.57.887-4.741 2.661-6.515 1.775-1.792 3.947-2.688 6.515-2.688 2.569 0 4.741.896 6.515 2.688 1.792 1.774 2.688 3.946 2.688 6.515 0 2.552-.896 4.723-2.688 6.515zm-11.407-1.598c1.318 1.319 2.949 1.978 4.892 1.978 1.944 0 3.566-.66 4.868-1.977 1.318-1.336 1.977-2.975 1.977-4.918 0-1.96-.659-3.6-1.977-4.918-1.302-1.336-2.924-2.003-4.868-2.003-1.943 0-3.574.667-4.892 2.002-1.302 1.319-1.952 2.958-1.952 4.919 0 1.943.65 3.582 1.952 4.918z" fill="#fff"/>
    <path d="M166.356 9.944V8.017h6.845v1.927h-6.845zm7.757 19.646V16.357l-9.126 13.233h-1.901V11.845h2.357v13.258l9.127-13.258h1.901V29.59h-2.358z" fill="#fff"/>
    <path d="M78.138 34.949h2.383l-5.704 13.537c-.642 1.52-1.462 2.628-2.46 3.32-.996.677-2.213.972-3.65.888v-2.18c.98.101 1.775-.043 2.383-.431.609-.389 1.116-1.056 1.521-2.003l.178-.405-6.008-12.726h2.383l4.715 10.14 4.259-10.14z" fill="#fff"/>
    <path d="M93.654 34.949h2.333v17.745h-2.333v-7.986h-8.619v7.986h-2.358V34.949h2.358v7.529h8.62v-7.53z" fill="#fff"/>
    <path d="M110.812 52.694V39.46l-9.127 13.233h-1.9V34.949h2.357v13.258l9.126-13.258h1.901v17.745h-2.357z" fill="#fff"/>
    <path d="M127.105 43.492a4.642 4.642 0 011.927 1.673c.49.727.735 1.563.735 2.51 0 1.42-.499 2.61-1.496 3.574-.997.963-2.214 1.445-3.65 1.445h-7.656V34.949h7.098c1.386 0 2.56.464 3.524 1.394.963.93 1.445 2.079 1.445 3.447 0 1.572-.642 2.806-1.927 3.702zm-3.042-6.338h-4.74v5.425h4.74c.744 0 1.369-.262 1.876-.786.507-.524.761-1.166.761-1.926a2.59 2.59 0 00-.786-1.902c-.507-.54-1.124-.81-1.851-.81zm.558 13.334c.794 0 1.462-.279 2.002-.836.541-.558.812-1.242.812-2.054 0-.794-.279-1.47-.837-2.028a2.65 2.65 0 00-1.977-.836h-5.298v5.754h5.298z" fill="#fff"/>
    <path d="M134.919 50.463h8.239v2.23h-10.597V34.95h10.47v2.23h-8.112v5.45h7.478v2.206h-7.478v5.628z" fill="#fff"/>
    <path d="M152.443 34.949c1.639 0 3 .549 4.082 1.647 1.098 1.082 1.647 2.434 1.647 4.056 0 1.606-.549 2.958-1.647 4.056-1.082 1.099-2.443 1.648-4.082 1.648h-4.081v6.338h-2.358V34.949h6.439zm0 9.202c.98 0 1.792-.33 2.434-.989.642-.676.963-1.512.963-2.51 0-1.014-.321-1.85-.963-2.51-.642-.658-1.454-.988-2.434-.988h-4.081v6.997h4.081z" fill="#fff"/>
    <path d="M169.173 53.023c-2.687 0-4.909-.887-6.667-2.661-1.741-1.775-2.611-3.955-2.611-6.54 0-2.587.87-4.767 2.611-6.541 1.758-1.775 3.98-2.662 6.667-2.662 1.623 0 3.11.389 4.462 1.166 1.369.778 2.434 1.825 3.194 3.144l-2.053 1.191c-.507-.98-1.268-1.758-2.282-2.332-.997-.592-2.104-.887-3.321-.887-2.045 0-3.718.659-5.019 1.977-1.284 1.318-1.927 2.966-1.927 4.943 0 1.96.643 3.6 1.927 4.918 1.301 1.318 2.974 1.978 5.019 1.978 1.217 0 2.324-.288 3.321-.862 1.014-.592 1.775-1.37 2.282-2.333l2.053 1.166c-.743 1.319-1.8 2.375-3.169 3.17-1.369.777-2.864 1.165-4.487 1.165z" fill="#fff"/>
    <path d="M190.527 52.694V39.46l-9.126 13.233h-1.902V34.949h2.358v13.258l9.126-13.258h1.901v17.745h-2.357z" fill="#fff"/>
    <path d="M208.037 34.949v2.23h-5.247v15.515h-2.333V37.179h-5.222v-2.23h12.802z" fill="#fff"/>
    <path d="M212.728 50.463h8.239v2.23H210.37V34.95h10.47v2.23h-8.112v5.45h7.478v2.206h-7.478v5.628z" fill="#fff"/>
    <path d="M235.17 34.949v2.23h-5.248v15.515h-2.332V37.179h-5.222v-2.23h12.802z" fill="#fff"/>
    <path d="M71.699 63.325l-2.789 4.64 2.789 4.613h-2.383l-2.789-4.614 2.789-4.639h2.383zm4.31 0l-2.79 4.64 2.79 4.613h-2.383l-2.79-4.614 2.79-4.639h2.382z" fill="#fff"/>
    <path d="M88.247 66.62c.912.39 1.622.956 2.13 1.7.506.743.76 1.622.76 2.636 0 1.52-.575 2.763-1.724 3.726-1.132.963-2.637 1.445-4.513 1.445-1.707 0-3.084-.38-4.132-1.14a6.093 6.093 0 01-2.18-2.941l2.003-1.141c.524 1.994 1.96 2.991 4.31 2.991 1.233 0 2.188-.27 2.864-.81.676-.559 1.014-1.294 1.014-2.206 0-.913-.321-1.648-.963-2.206-.626-.558-1.504-.837-2.637-.837h-2.078v-2.154h1.495c1.082 0 1.944-.262 2.586-.786.642-.54.963-1.242.963-2.104 0-.845-.304-1.53-.912-2.054-.592-.54-1.42-.81-2.485-.81-1.96 0-3.27.87-3.929 2.61l-1.977-1.14c1.064-2.451 3.033-3.676 5.906-3.676 1.707 0 3.085.473 4.132 1.42 1.065.946 1.598 2.146 1.598 3.6 0 1.69-.744 2.982-2.231 3.878z" fill="#fff"/>
    <path d="M104.913 58.052h2.333v17.746h-2.333v-7.986h-8.619v7.986h-2.357V58.052h2.357v7.53h8.619v-7.53z" fill="#fff"/>
    <path d="M122.73 75.798l-1.445-3.98h-7.986l-1.445 3.98h-2.509l6.616-17.746h2.662l6.617 17.746h-2.51zm-8.619-6.186h6.363l-3.195-8.746-3.168 8.746z" fill="#fff"/>
    <path d="M138.31 58.052h2.332v17.746h-2.332v-7.986h-8.62v7.986h-2.357V58.052h2.357v7.53h8.62v-7.53z" fill="#fff"/>
    <path d="M155.467 75.798V62.565l-9.126 13.233h-1.902V58.052h2.358v13.259l9.126-13.259h1.902v17.746h-2.358z" fill="#fff"/>
    <path d="M163.978 73.567h8.239v2.23H161.62V58.053h10.47v2.231h-8.112v5.45h7.478v2.206h-7.478v5.628z" fill="#fff"/>
    <path d="M177.268 63.325l2.789 4.64-2.789 4.613h-2.382l2.788-4.614-2.788-4.639h2.382zm4.31 0l2.789 4.64-2.789 4.613h-2.383l2.789-4.614-2.789-4.639h2.383z" fill="#fff"/>
    
</symbol><symbol id="ico-color-logo" viewBox="0 0 236 88">
    <path d="M1.685 53.774L50.4 70.039V51.08L1.93 34.816l-.245 18.958z" fill="url(#paint0_linear_logo)"/>
    <path d="M0 16.627c0 1.051.671 1.985 1.668 2.32l48.977 16.467V16.396L1.935.078A1.469 1.469 0 000 1.47v15.157z" fill="url(#paint1_linear_logo)"/>
    <path d="M0 37.813a4.896 4.896 0 013.346-4.644l45.902-15.322a1.07 1.07 0 00.417-1.772l.95.301a1.958 1.958 0 011.365 1.867v14.052a4.896 4.896 0 01-3.336 4.641L2.576 52.411a.885.885 0 00-.157 1.608l-.826-.265A2.293 2.293 0 010 51.571V37.813z" fill="url(#paint2_linear_logo)"/>
    <path d="M0 72.575a4.896 4.896 0 013.346-4.644l45.902-15.322a1.07 1.07 0 00.417-1.773l.95.302a1.958 1.958 0 011.365 1.866V67.057a4.896 4.896 0 01-3.336 4.64L2.174 87.313l-.734.244A1.11 1.11 0 010 86.497V72.575z" fill="url(#paint3_linear_logo)"/>
    <path d="M76.313 29.92c-2.688 0-4.91-.888-6.668-2.662-1.74-1.775-2.61-3.955-2.61-6.54 0-2.586.87-4.766 2.61-6.54 1.758-1.775 3.98-2.663 6.668-2.663 1.622 0 3.11.389 4.461 1.166 1.37.778 2.434 1.826 3.194 3.144l-2.053 1.191c-.507-.98-1.268-1.757-2.282-2.332-.997-.591-2.104-.887-3.32-.887-2.045 0-3.719.659-5.02 1.977-1.284 1.318-1.926 2.966-1.926 4.944 0 1.96.642 3.6 1.926 4.918 1.301 1.318 2.975 1.977 5.02 1.977 1.216 0 2.323-.287 3.32-.862 1.014-.592 1.775-1.369 2.282-2.332l2.053 1.166c-.743 1.318-1.8 2.374-3.168 3.169-1.37.777-2.865 1.166-4.487 1.166z" fill="#000"/>
    <path d="M88.996 27.36h8.239v2.23H86.638V11.845h10.47v2.23h-8.112v5.451h7.479v2.206h-7.479v5.627z" fill="#000"/>
    <path d="M111.438 11.845v2.23h-5.247V29.59h-2.333V14.076h-5.222v-2.231h12.802z" fill="#000"/>
    <path d="M116.129 27.36h8.239v2.23h-10.597V11.845h10.47v2.23h-8.112v5.451h7.478v2.206h-7.478v5.627z" fill="#000"/>
    <path d="M137.354 20.388a4.642 4.642 0 011.927 1.673c.49.727.735 1.563.735 2.51 0 1.42-.499 2.61-1.496 3.574-.997.963-2.214 1.445-3.65 1.445h-7.656V11.845h7.098c1.386 0 2.561.465 3.524 1.394.963.93 1.445 2.079 1.445 3.448 0 1.572-.642 2.805-1.927 3.701zm-3.042-6.338h-4.74v5.425h4.74c.744 0 1.369-.262 1.876-.786.507-.523.761-1.166.761-1.926a2.59 2.59 0 00-.786-1.901c-.507-.541-1.124-.812-1.851-.812zm.558 13.335c.794 0 1.462-.28 2.003-.837.54-.558.811-1.242.811-2.053 0-.795-.279-1.47-.837-2.028a2.65 2.65 0 00-1.977-.837h-5.298v5.755h5.298z" fill="#000"/>
    <path d="M157.564 27.233c-1.774 1.791-3.946 2.687-6.515 2.687-2.568 0-4.74-.896-6.515-2.687-1.774-1.792-2.661-3.963-2.661-6.515 0-2.57.887-4.741 2.661-6.515 1.775-1.792 3.947-2.688 6.515-2.688 2.569 0 4.741.896 6.515 2.688 1.792 1.774 2.688 3.946 2.688 6.515 0 2.552-.896 4.723-2.688 6.515zm-11.407-1.598c1.318 1.319 2.949 1.978 4.892 1.978 1.944 0 3.566-.66 4.868-1.977 1.318-1.336 1.977-2.975 1.977-4.918 0-1.96-.659-3.6-1.977-4.918-1.302-1.336-2.924-2.003-4.868-2.003-1.943 0-3.574.667-4.892 2.002-1.302 1.319-1.952 2.958-1.952 4.919 0 1.943.65 3.582 1.952 4.918z" fill="#000"/>
    <path d="M166.356 9.944V8.017h6.845v1.927h-6.845zm7.757 19.646V16.357l-9.126 13.233h-1.901V11.845h2.357v13.258l9.127-13.258h1.901V29.59h-2.358z" fill="#000"/>
    <path d="M78.138 34.949h2.383l-5.704 13.537c-.642 1.52-1.462 2.628-2.46 3.32-.996.677-2.213.972-3.65.888v-2.18c.98.101 1.775-.043 2.383-.431.609-.389 1.116-1.056 1.521-2.003l.178-.405-6.008-12.726h2.383l4.715 10.14 4.259-10.14z" fill="#000"/>
    <path d="M93.654 34.949h2.333v17.745h-2.333v-7.986h-8.619v7.986h-2.358V34.949h2.358v7.529h8.62v-7.53z" fill="#000"/>
    <path d="M110.812 52.694V39.46l-9.127 13.233h-1.9V34.949h2.357v13.258l9.126-13.258h1.901v17.745h-2.357z" fill="#000"/>
    <path d="M127.105 43.492a4.642 4.642 0 011.927 1.673c.49.727.735 1.563.735 2.51 0 1.42-.499 2.61-1.496 3.574-.997.963-2.214 1.445-3.65 1.445h-7.656V34.949h7.098c1.386 0 2.56.464 3.524 1.394.963.93 1.445 2.079 1.445 3.447 0 1.572-.642 2.806-1.927 3.702zm-3.042-6.338h-4.74v5.425h4.74c.744 0 1.369-.262 1.876-.786.507-.524.761-1.166.761-1.926a2.59 2.59 0 00-.786-1.902c-.507-.54-1.124-.81-1.851-.81zm.558 13.334c.794 0 1.462-.279 2.002-.836.541-.558.812-1.242.812-2.054 0-.794-.279-1.47-.837-2.028a2.65 2.65 0 00-1.977-.836h-5.298v5.754h5.298z" fill="#000"/>
    <path d="M134.919 50.463h8.239v2.23h-10.597V34.95h10.47v2.23h-8.112v5.45h7.478v2.206h-7.478v5.628z" fill="#000"/>
    <path d="M152.443 34.949c1.639 0 3 .549 4.082 1.647 1.098 1.082 1.647 2.434 1.647 4.056 0 1.606-.549 2.958-1.647 4.056-1.082 1.099-2.443 1.648-4.082 1.648h-4.081v6.338h-2.358V34.949h6.439zm0 9.202c.98 0 1.792-.33 2.434-.989.642-.676.963-1.512.963-2.51 0-1.014-.321-1.85-.963-2.51-.642-.658-1.454-.988-2.434-.988h-4.081v6.997h4.081z" fill="#000"/>
    <path d="M169.173 53.023c-2.687 0-4.909-.887-6.667-2.661-1.741-1.775-2.611-3.955-2.611-6.54 0-2.587.87-4.767 2.611-6.541 1.758-1.775 3.98-2.662 6.667-2.662 1.623 0 3.11.389 4.462 1.166 1.369.778 2.434 1.825 3.194 3.144l-2.053 1.191c-.507-.98-1.268-1.758-2.282-2.332-.997-.592-2.104-.887-3.321-.887-2.045 0-3.718.659-5.019 1.977-1.284 1.318-1.927 2.966-1.927 4.943 0 1.96.643 3.6 1.927 4.918 1.301 1.318 2.974 1.978 5.019 1.978 1.217 0 2.324-.288 3.321-.862 1.014-.592 1.775-1.37 2.282-2.333l2.053 1.166c-.743 1.319-1.8 2.375-3.169 3.17-1.369.777-2.864 1.165-4.487 1.165z" fill="#000"/>
    <path d="M190.527 52.694V39.46l-9.126 13.233h-1.902V34.949h2.358v13.258l9.126-13.258h1.901v17.745h-2.357z" fill="#000"/>
    <path d="M208.037 34.949v2.23h-5.247v15.515h-2.333V37.179h-5.222v-2.23h12.802z" fill="#000"/>
    <path d="M212.728 50.463h8.239v2.23H210.37V34.95h10.47v2.23h-8.112v5.45h7.478v2.206h-7.478v5.628z" fill="#000"/>
    <path d="M235.17 34.949v2.23h-5.248v15.515h-2.332V37.179h-5.222v-2.23h12.802z" fill="#000"/>
    <path d="M71.699 63.325l-2.789 4.64 2.789 4.613h-2.383l-2.789-4.614 2.789-4.639h2.383zm4.31 0l-2.79 4.64 2.79 4.613h-2.383l-2.79-4.614 2.79-4.639h2.382z" fill="#000"/>
    <path d="M88.247 66.62c.912.39 1.622.956 2.13 1.7.506.743.76 1.622.76 2.636 0 1.52-.575 2.763-1.724 3.726-1.132.963-2.637 1.445-4.513 1.445-1.707 0-3.084-.38-4.132-1.14a6.093 6.093 0 01-2.18-2.941l2.003-1.141c.524 1.994 1.96 2.991 4.31 2.991 1.233 0 2.188-.27 2.864-.81.676-.559 1.014-1.294 1.014-2.206 0-.913-.321-1.648-.963-2.206-.626-.558-1.504-.837-2.637-.837h-2.078v-2.154h1.495c1.082 0 1.944-.262 2.586-.786.642-.54.963-1.242.963-2.104 0-.845-.304-1.53-.912-2.054-.592-.54-1.42-.81-2.485-.81-1.96 0-3.27.87-3.929 2.61l-1.977-1.14c1.064-2.451 3.033-3.676 5.906-3.676 1.707 0 3.085.473 4.132 1.42 1.065.946 1.598 2.146 1.598 3.6 0 1.69-.744 2.982-2.231 3.878z" fill="#000"/>
    <path d="M104.913 58.052h2.333v17.746h-2.333v-7.986h-8.619v7.986h-2.357V58.052h2.357v7.53h8.619v-7.53z" fill="#000"/>
    <path d="M122.73 75.798l-1.445-3.98h-7.986l-1.445 3.98h-2.509l6.616-17.746h2.662l6.617 17.746h-2.51zm-8.619-6.186h6.363l-3.195-8.746-3.168 8.746z" fill="#000"/>
    <path d="M138.31 58.052h2.332v17.746h-2.332v-7.986h-8.62v7.986h-2.357V58.052h2.357v7.53h8.62v-7.53z" fill="#000"/>
    <path d="M155.467 75.798V62.565l-9.126 13.233h-1.902V58.052h2.358v13.259l9.126-13.259h1.902v17.746h-2.358z" fill="#000"/>
    <path d="M163.978 73.567h8.239v2.23H161.62V58.053h10.47v2.231h-8.112v5.45h7.478v2.206h-7.478v5.628z" fill="#000"/>
    <path d="M177.268 63.325l2.789 4.64-2.789 4.613h-2.382l2.788-4.614-2.788-4.639h2.382zm4.31 0l2.789 4.64-2.789 4.613h-2.383l2.789-4.614-2.789-4.639h2.383z" fill="#000"/>
    
</symbol></svg>